<svg xmlns="http://www.w3.org/2000/svg" width="57" height="33" viewBox="0 0 57 33" fill="none">
<path d="M55.0858 27.0603L55.1139 27.0126L56.1084 25.3161C56.329 25.0372 56.4495 24.6924 56.4508 24.3368C56.4372 23.8855 56.2453 23.4579 55.9172 23.1477C55.5891 22.8374 55.1515 22.6698 54.7001 22.6815C54.3469 22.677 54.0005 22.7793 53.7063 22.9749C53.4121 23.1705 53.1838 23.4503 53.0513 23.7778L53.0253 23.8341L52.1716 25.3031C51.3158 26.7115 50.9973 27.2358 50.0829 27.4698C49.4891 27.6234 48.8706 27.6573 48.2636 27.5695C47.6565 27.4817 47.073 27.274 46.5469 26.9585C44.9609 26.0181 43.9469 24.1808 42.8636 22.0553L41.6589 19.672C41.504 19.3668 41.2609 19.1153 40.9612 18.95C40.6615 18.7848 40.319 18.7134 39.9782 18.7451C39.6375 18.7769 39.3141 18.9104 39.0501 19.1282C38.7861 19.346 38.5937 19.6381 38.4978 19.9666C38.0148 21.648 37.2508 23.2355 36.2379 24.6618C35.3713 25.9011 34.3313 27.2466 33.0724 27.5218C32.0758 27.7948 31.3044 26.7375 30.3294 25.4028L30.1344 25.0843C29.6838 24.4755 27.8248 21.0413 27.4586 20.1378L27.4369 20.0706C27.3689 19.7409 27.2056 19.4384 26.9672 19.2008C26.7287 18.9631 26.4257 18.8007 26.0958 18.7338C25.8779 18.6866 25.6527 18.6833 25.4335 18.724C25.2143 18.7647 25.0053 18.8485 24.8188 18.9707C24.6323 19.0929 24.472 19.251 24.3471 19.4357C24.2223 19.6204 24.1354 19.8282 24.0916 20.0468C23.7753 21.4226 23.1578 22.6078 22.0918 23.8948C21.1493 25.1016 20.3324 26.0615 19.1538 26.5836C17.9101 27.1686 16.5538 27.1925 15.1086 26.6508L14.5561 26.4341L14.8508 25.938C15.0436 25.6151 15.2364 25.2988 15.4228 24.9933C15.7911 24.3866 16.1313 23.8233 16.3934 23.3445C18.768 19.276 20.2186 14.735 20.6423 10.0433C20.7549 8.63064 20.8069 6.96881 20.3151 5.35247C19.7409 3.43931 18.4409 1.94214 16.7509 1.23581C14.9374 0.496972 12.6928 0.785138 10.9009 1.98331C9.62045 2.82614 8.51761 4.12397 7.49928 5.95047C5.98953 8.77695 5.20947 11.9357 5.2299 15.1401C5.25034 18.3444 6.07061 21.493 7.61628 24.3C8.06623 25.129 8.62113 25.8965 9.26728 26.5836L9.62911 26.9715L9.21745 27.3116C8.03878 28.2585 7.01828 28.7243 6.00861 28.7785C5.58475 28.7849 5.17055 28.6517 4.82995 28.3993L4.78878 28.3646C4.58728 28.1675 4.40311 27.7146 4.29695 27.1946L3.86361 25.0431C3.77176 24.6811 3.56014 24.3607 3.26315 24.1341C2.96616 23.9075 2.60126 23.7881 2.22778 23.7951C2.01333 23.7891 1.79979 23.8254 1.59939 23.902C1.39898 23.9785 1.21565 24.0939 1.05988 24.2414C0.904111 24.3889 0.778965 24.5657 0.691607 24.7616C0.604249 24.9576 0.556394 25.1688 0.550781 25.3833C0.552087 25.4559 0.558603 25.5283 0.570281 25.6L0.951615 27.7471C1.22245 29.1403 1.70345 30.1153 2.46828 30.8173C3.40655 31.6967 4.64913 32.1782 5.93495 32.1606H6.22095C8.30311 32.0675 10.2206 31.1315 12.0709 29.2985L12.3223 29.0493L12.6386 29.2096C15.3101 30.5573 18.1159 30.6938 20.5404 29.5975C22.4341 28.6896 23.6669 27.2011 24.6571 26.0073C24.8846 25.6671 25.1229 25.3725 25.3548 25.0886L25.8054 24.534L26.1629 25.1471C26.7263 26.1048 27.2463 26.8956 27.3503 27.043L27.7164 27.602C28.9124 29.1793 30.7303 31.5756 33.8416 30.8693C36.4048 30.2886 37.9951 28.1393 39.0416 26.7158L39.0611 26.6898C39.3877 26.2563 39.6831 25.8002 39.9451 25.3248L40.3784 24.5686L40.8118 25.3205C41.7456 26.952 42.9611 28.7633 44.8743 29.8423C46.7233 30.9211 48.9215 31.2323 50.9973 30.709C53.2398 30.1348 54.2213 28.5011 55.0858 27.0603ZM13.1283 22.2503L13.0958 22.3045C12.8336 22.753 12.5389 23.2578 12.1923 23.793L11.8304 24.3498L11.3971 23.8428C11.1048 23.5007 10.8525 23.1264 10.6453 22.727C8.09945 18.1055 8.04528 12.1385 10.5369 7.5278C11.2671 6.2083 12.0124 5.29831 12.8163 4.74797C13.3495 4.36144 13.9907 4.15225 14.6493 4.14997C14.9172 4.15376 15.1827 4.20058 15.4358 4.28864L15.4856 4.30814C15.8739 4.51648 16.2153 4.80219 16.4888 5.14764C16.7624 5.49309 16.9622 5.89095 17.0759 6.31664C17.4573 7.44547 17.3771 8.74114 17.2644 9.74214C16.8727 13.9446 15.5786 18.0131 13.4706 21.6696C13.3579 21.856 13.2453 22.0466 13.1283 22.2503Z" fill="#A9D5CD"></path>
</svg>